<?xml version="1.0" standalone="no"?>
<!DOCTYPE svg PUBLIC "-//W3C//DTD SVG 20010904//EN"
 "http://www.w3.org/TR/2001/REC-SVG-20010904/DTD/svg10.dtd">
<svg version="1.0" xmlns="http://www.w3.org/2000/svg"
 width="333.000000pt" height="392.000000pt" viewBox="0 0 333.000000 392.000000"
 preserveAspectRatio="xMidYMid meet">
<metadata>
Created by potrace 1.16, written by Peter Selinger 2001-2019
</metadata>
<g transform="translate(0.000000,392.000000) scale(0.100000,-0.100000)"
fill="#000000" stroke="none">
<path d="M436 2488 c-49 -108 -61 -169 -61 -333 0 -225 22 -319 120 -520 57
-115 153 -252 174 -247 7 1 10 -2 6 -7 -7 -13 64 -93 76 -85 5 3 8 0 7 -8 -2
-7 3 -12 10 -10 8 1 11 -2 8 -7 -8 -13 53 -63 66 -55 6 4 8 2 4 -4 -3 -6 9
-22 27 -36 36 -28 53 -33 41 -14 -4 7 -3 8 5 4 6 -4 9 -11 6 -16 -3 -5 5 -16
17 -24 27 -19 42 -21 32 -4 -4 8 -3 10 2 5 5 -5 9 -14 9 -19 0 -6 6 -13 14
-16 9 -3 11 0 6 9 -5 8 -4 11 1 6 5 -5 9 -13 9 -19 0 -29 355 -184 401 -175
13 2 21 0 18 -4 -3 -5 8 -11 23 -14 15 -3 44 -10 63 -15 19 -5 56 -10 83 -11
26 -2 47 -7 47 -12 0 -5 -6 -7 -12 -4 -7 2 -19 -3 -26 -12 -11 -13 -12 -13 -7
-1 4 8 -12 -5 -34 -30 -23 -26 -41 -39 -41 -30 0 9 -5 5 -13 -9 -6 -13 -15
-22 -18 -20 -10 6 -54 -52 -82 -107 -27 -53 -49 -183 -29 -170 6 4 8 -1 5 -14
-7 -26 5 -72 17 -65 5 3 7 -1 4 -9 -7 -18 14 -59 26 -51 5 3 12 0 16 -6 4 -8
3 -9 -4 -5 -7 4 -12 3 -12 -2 0 -10 24 -33 31 -29 2 1 3 0 2 -2 -4 -7 19 -31
29 -31 5 0 6 5 2 12 -4 7 -3 8 5 4 6 -4 9 -11 6 -16 -3 -5 8 -16 25 -25 30
-15 66 -15 150 1 19 4 22 2 10 -6 -24 -16 6 -12 40 5 28 15 57 52 52 68 -1 4
2 7 8 7 6 0 9 3 9 8 -1 4 0 10 1 15 5 18 2 74 -4 95 -4 13 -19 27 -33 33 -33
12 -83 12 -83 -2 0 -5 -4 -7 -10 -4 -5 3 -10 -3 -10 -14 0 -14 6 -21 20 -21
29 0 46 -48 25 -69 -18 -18 -130 -27 -119 -9 4 7 2 8 -5 4 -7 -5 -24 4 -41 22
-16 17 -30 29 -32 27 -10 -10 -15 119 -6 157 4 15 9 32 12 37 4 5 0 12 -6 14
-9 4 -8 6 2 6 8 1 21 10 28 22 11 17 11 20 0 14 -7 -5 6 9 30 29 23 21 40 41
37 46 -3 4 2 11 11 14 10 4 13 2 8 -7 -6 -9 -4 -9 8 1 8 7 40 26 69 43 30 17
43 27 29 24 l-25 -6 25 15 c29 17 44 20 35 7 -6 -10 90 21 102 32 3 4 16 7 27
7 15 0 17 3 8 9 -11 7 -11 9 2 14 9 4 16 2 16 -3 0 -5 8 -7 18 -4 28 9 90 34
132 53 21 9 22 10 3 5 -13 -3 -23 -3 -23 0 0 8 112 56 132 56 17 0 138 76 138
86 0 2 -8 1 -17 -2 -15 -5 -16 -4 -3 5 8 6 24 11 35 12 l20 0 -20 9 c-17 7
-16 9 10 9 20 1 26 4 17 10 -14 9 -3 22 29 34 9 3 30 24 48 46 21 27 27 39 16
34 -15 -5 -16 -3 -6 16 7 12 23 26 37 31 13 5 24 12 24 14 0 3 -7 3 -16 -1
-15 -5 -14 -3 1 21 14 22 16 32 7 51 -7 15 -8 25 -2 25 6 0 10 -6 10 -14 0 -9
7 -12 20 -9 16 4 17 7 5 19 -7 8 -18 14 -24 14 -6 0 -11 5 -11 10 0 6 5 10 11
10 5 0 8 4 5 9 -3 5 0 24 8 42 15 36 16 40 16 63 0 7 9 16 20 19 11 3 20 13
20 24 0 15 -2 15 -10 3 -8 -13 -10 -13 -14 0 -3 8 -7 26 -9 40 -8 70 -137 248
-137 190 0 -23 56 -95 71 -92 9 2 19 -5 23 -14 5 -13 2 -15 -14 -11 -13 3 -20
0 -20 -10 0 -10 -6 -12 -21 -8 -15 5 -19 4 -15 -4 4 -6 19 -12 34 -12 20 -1
22 -3 8 -6 -21 -6 -116 35 -116 49 0 5 10 2 22 -6 12 -9 27 -16 33 -16 5 0 -3
9 -20 20 -33 22 -85 87 -85 106 0 7 -5 16 -11 20 -8 4 -9 -1 -5 -17 4 -17 2
-15 -8 6 -8 17 -10 31 -6 33 5 2 6 10 3 18 -5 13 -7 13 -14 2 -7 -10 -9 -8
-10 7 -1 11 -1 26 0 34 2 7 -2 10 -8 6 -7 -3 -10 1 -8 12 1 10 -2 19 -8 20 -5
1 -12 10 -16 20 -6 15 -8 15 -8 2 -1 -9 13 -48 30 -85 17 -38 38 -84 46 -102
35 -80 126 -147 189 -140 19 2 36 -1 39 -7 3 -5 3 4 0 20 -4 22 -3 26 5 15 5
-8 7 -31 5 -50 -9 -61 -28 -145 -35 -155 -11 -15 -20 -45 -14 -45 2 0 9 10 14
23 6 16 9 18 9 5 1 -10 -7 -32 -18 -50 -46 -81 -64 -108 -69 -104 -3 3 0 11 6
18 18 23 53 90 49 95 -3 2 -12 -11 -20 -29 -9 -18 -25 -46 -37 -63 -11 -16
-20 -39 -20 -50 0 -17 -2 -17 -10 -5 -8 12 -10 10 -10 -10 0 -20 -2 -22 -10
-10 -8 12 -10 10 -10 -10 0 -14 -4 -20 -8 -14 -5 7 -14 4 -27 -10 -11 -12 -16
-18 -11 -13 6 4 14 7 19 7 6 0 -7 -13 -28 -30 -38 -31 -62 -39 -49 -18 4 7 3
8 -5 4 -6 -4 -9 -11 -6 -16 3 -5 -8 -16 -26 -25 -23 -12 -29 -13 -24 -3 4 7
-2 2 -13 -11 -12 -15 -24 -21 -32 -16 -9 6 -11 4 -5 -5 6 -10 4 -12 -8 -7 -10
3 -17 2 -17 -4 0 -6 -4 -7 -10 -4 -5 3 -10 1 -10 -5 0 -7 -6 -10 -14 -7 -8 3
-17 -1 -20 -10 -4 -10 -15 -14 -31 -11 -15 3 -26 0 -29 -9 -4 -8 -18 -13 -38
-12 -18 2 -42 -2 -53 -8 -26 -13 -342 -9 -376 5 -15 6 -30 8 -33 5 -3 -3 -12
0 -21 7 -8 7 -15 9 -15 4 0 -4 -5 -3 -11 3 -6 6 -18 9 -25 6 -8 -3 -14 0 -14
7 0 6 -5 8 -10 5 -6 -3 -10 -1 -10 4 0 6 -3 10 -7 9 -5 -1 -18 3 -30 10 -13 7
-23 10 -23 7 0 -4 -7 1 -16 9 -8 9 -20 14 -25 11 -5 -4 -9 -1 -9 6 0 7 -3 9
-7 6 -3 -4 -18 3 -31 15 -14 13 -21 16 -16 8 6 -11 0 -10 -21 4 -58 37 -65 43
-58 49 3 4 2 7 -3 7 -6 0 -20 9 -32 20 -12 12 -22 18 -22 14 0 -3 -8 2 -17 13
-10 10 -16 14 -13 8 3 -6 -6 2 -20 17 -14 16 -31 28 -39 28 -8 0 -12 3 -8 6 3
4 -2 14 -11 23 -10 9 -11 12 -3 6 8 -5 0 9 -19 33 -18 23 -38 42 -43 42 -5 0
-6 7 -3 16 3 9 2 12 -5 9 -6 -4 -10 -1 -8 6 3 24 -1 39 -8 38 -19 -3 -25 2
-15 14 7 8 6 19 -5 37 -8 14 -12 17 -9 7 4 -11 2 -16 -5 -11 -6 3 -9 17 -6 30
2 13 0 24 -4 24 -5 0 -9 7 -9 16 0 8 4 12 10 9 6 -3 7 1 4 9 -3 9 -10 13 -15
10 -10 -6 -12 69 -3 103 4 13 10 21 14 18 4 -3 10 2 14 10 3 8 1 15 -4 15 -6
0 -10 8 -10 18 0 13 2 14 9 4 7 -11 9 -11 14 2 4 9 1 16 -6 17 -7 0 -3 4 8 9
11 5 14 9 8 9 -7 1 -13 6 -13 12 0 5 4 8 9 5 5 -3 14 1 21 9 11 13 10 14 -5 9
-15 -6 -16 -4 -6 14 7 12 19 22 29 23 10 0 12 3 4 6 -9 3 -6 13 10 36 32 46
42 54 57 49 8 -3 11 0 7 7 -4 6 1 14 11 17 10 3 25 9 34 14 13 7 17 4 17 -17
0 -18 -3 -21 -9 -12 -6 10 -9 7 -9 -11 -1 -14 -9 -41 -20 -60 -23 -42 -27 -32
-4 11 8 17 14 33 11 35 -7 8 -46 -91 -62 -158 -39 -165 5 -345 119 -483 47
-58 57 -66 70 -58 5 3 6 1 2 -5 -9 -14 81 -85 153 -122 61 -30 183 -71 210
-69 9 1 6 4 -9 9 -19 6 -20 8 -6 9 15 1 16 4 6 16 -7 9 -15 13 -18 10 -3 -3
-14 3 -25 12 -11 10 -17 12 -13 5 7 -11 4 -11 -12 -1 -12 7 -18 17 -15 23 4 5
1 6 -6 2 -12 -8 -131 108 -131 127 0 5 -4 6 -8 3 -5 -3 -17 9 -27 26 -10 17
-13 28 -7 24 8 -5 10 -2 6 8 -3 9 -10 13 -15 10 -5 -3 -6 1 -3 9 3 8 -2 21
-10 30 -17 17 -22 32 -8 23 5 -3 5 17 -1 44 -5 28 -14 50 -19 50 -12 0 -6 53
6 62 5 3 10 22 10 42 1 20 5 36 10 36 4 0 6 7 2 15 -3 9 3 24 14 35 11 11 15
20 10 20 -7 0 -7 6 0 20 6 11 17 20 25 20 9 0 12 6 9 15 -4 9 0 15 8 15 8 0
34 21 58 48 l45 47 -47 -45 c-27 -24 -48 -40 -48 -34 0 16 74 84 93 84 9 0 31
9 49 20 18 11 26 20 18 20 -11 0 -12 2 -2 8 12 8 63 8 322 -1 108 -3 120 -3
45 3 l-100 7 112 -1 c66 -1 111 3 110 9 -1 5 8 14 20 20 26 11 39 58 30 105
-4 19 -1 34 8 44 11 11 12 16 2 19 -6 3 -1 6 13 6 20 1 22 3 10 11 -13 8 -13
10 1 10 30 0 39 49 13 74 -18 19 -11 36 16 36 10 0 21 4 24 8 8 13 -27 11 -44
-3 -23 -19 -60 -28 -60 -15 0 7 9 14 20 17 11 3 17 10 13 16 -3 5 -1 7 4 4 6
-4 17 3 25 16 20 30 2 80 -23 64 -15 -10 -15 -12 5 -30 l21 -19 -25 16 c-14 9
-31 19 -38 22 -15 7 -44 -15 -36 -27 3 -5 0 -9 -6 -9 -7 0 -10 7 -6 15 7 19 5
19 -82 -5 -40 -11 -77 -18 -81 -15 -5 2 -16 -3 -24 -13 -10 -11 -59 -28 -122
-42 -59 -14 -115 -33 -125 -42 -11 -10 -23 -18 -28 -18 -5 0 -15 -7 -22 -15
-10 -12 -14 -12 -26 -1 -15 15 -58 10 -48 -6 3 -5 -3 -12 -15 -15 -11 -3 -18
-10 -14 -16 3 -6 1 -7 -6 -3 -6 4 -9 12 -6 17 4 5 -1 9 -9 9 -9 0 -16 -5 -16
-11 0 -5 -4 -7 -10 -4 -5 3 -10 -1 -10 -9 0 -19 -4 -20 -30 -3 -17 10 -22 9
-29 -2 -6 -9 -11 -10 -15 -2 -4 6 -12 8 -18 5 -6 -4 -5 -10 3 -16 10 -7 8 -8
-7 -3 -15 4 -24 0 -28 -11 -3 -8 -12 -14 -18 -12 -7 3 -19 -2 -27 -9 -7 -8
-20 -12 -28 -9 -8 3 -11 1 -8 -4 3 -6 -1 -10 -10 -10 -13 0 -14 4 -4 23 12 21
11 21 -8 4 -11 -9 -23 -15 -26 -12 -4 3 -5 2 -2 -1 12 -17 -30 -67 -71 -84
-24 -11 -44 -22 -44 -25 0 -4 4 -3 10 0 6 3 7 -1 4 -9 -3 -9 -10 -16 -14 -16
-16 0 -22 21 -11 34 8 9 7 13 -4 13 -8 0 -12 -4 -10 -8 3 -4 -3 -10 -13 -14
-16 -6 -16 -7 2 -21 11 -8 15 -14 9 -14 -7 0 -15 5 -18 11 -5 7 -13 5 -25 -6
-14 -12 -20 -13 -26 -4 -4 7 -3 10 4 5 6 -3 14 3 17 15 4 11 9 18 12 16 2 -3
22 12 44 34 21 21 39 36 39 33 0 -14 69 50 73 69 5 19 3 18 -20 -8 -14 -16
-23 -22 -19 -12 8 25 -3 21 -13 -5 -11 -28 -70 -66 -72 -46 -1 7 -4 2 -8 -11
-4 -14 -13 -27 -21 -29 -13 -5 -13 -3 0 14 12 17 12 17 0 6 -8 -7 -15 -18 -15
-25 -1 -7 -6 -11 -13 -9 -7 1 -11 -1 -11 -5 3 -20 -2 -27 -11 -13 -7 12 -9 11
-8 -5 1 -11 -11 -39 -26 -62 -29 -44 -43 -55 -32 -27 3 8 2 12 -4 9 -6 -3 -10
-15 -10 -25 0 -10 -5 -22 -11 -25 -7 -5 -8 -37 -3 -96 7 -95 -4 -119 -22 -45
-8 35 -7 43 3 39 7 -3 13 0 13 6 0 6 -5 11 -11 11 -7 0 -10 23 -7 65 3 63 -6
89 -15 43 -4 -20 -4 -20 -6 4 0 15 4 30 9 33 13 8 13 35 -1 35 -5 0 -8 -4 -4
-9 3 -5 -1 -15 -8 -23 -7 -7 -16 -21 -20 -31 -5 -13 -13 -16 -32 -11 -16 4
-25 2 -25 -6 0 -6 -4 -9 -9 -5 -5 3 -13 0 -16 -5 -5 -8 -13 -6 -26 6 -18 16
-20 16 -39 -1 -16 -14 -23 -16 -32 -7 -17 17 -33 15 -18 -3 7 -8 9 -15 4 -16
-5 0 0 -5 11 -10 19 -8 19 -9 1 -6 -11 1 -18 6 -17 11 2 5 -3 12 -10 17 -7 4
-14 18 -15 31 -1 13 -6 34 -10 47 -7 23 -8 24 -15 5 -6 -12 -7 0 -4 31 3 42 3
45 -5 20 -7 -22 -8 -8 -6 55 2 58 1 75 -5 55 -5 -18 -7 22 -4 105 4 146 19
209 73 323 2 4 1 7 -2 7 -3 0 -12 -15 -20 -32z"/>
</g>
</svg>
